<?xml version="1.0" standalone="no"?>
<!DOCTYPE svg PUBLIC "-//W3C//DTD SVG 20010904//EN"
 "http://www.w3.org/TR/2001/REC-SVG-20010904/DTD/svg10.dtd">
<svg version="1.0" xmlns="http://www.w3.org/2000/svg"
 width="260.000000pt" height="260.000000pt" viewBox="0 0 260.000000 260.000000"
 preserveAspectRatio="xMidYMid meet">
<metadata>
Created by potrace 1.14, written by Peter Selinger 2001-2017
</metadata>
<g transform="translate(0.000000,260.000000) scale(0.100000,-0.100000)"
fill="#000000" stroke="none">
<path d="M0 1300 l0 -1300 1300 0 1300 0 0 1300 0 1300 -1300 0 -1300 0 0
-1300z m310 770 l0 -380 425 0 425 0 0 380 0 380 85 0 85 0 0 -385 0 -385 585
0 585 0 0 -75 0 -75 -250 0 -250 0 0 -760 0 -760 -85 0 -85 0 0 760 0 760
-250 0 -250 0 0 -375 0 -375 -85 0 -85 0 0 370 0 370 -425 0 -425 0 0 -370 0
-370 -85 0 -85 0 0 835 0 835 85 0 85 0 0 -380z"/>
</g>
</svg>
